<svg xmlns="http://www.w3.org/2000/svg" enable-background="new 0 0 47.5 47.5" viewBox="0 0 47.5 47.5"><defs><clipPath id="a"><path d="M0 38h38V0H0v38Z"/></clipPath></defs><g clip-path="url(#a)" transform="matrix(1.25 0 0 -1.25 0 47.5)"><path fill="#292f33" d="M0 0a4 4 0 0 0-4-4h-26a4 4 0 0 0-4 4v24a4 4 0 0 0 4 4h26a4 4 0 0 0 4-4V0Z" transform="translate(36 5)"/><path fill="#e1e8ed" d="M0 0a2 2 0 0 0-2-2h-26a2 2 0 0 0-2 2v20a2 2 0 0 0 2 2h26a2 2 0 0 0 2-2V0Z" transform="translate(34 5)"/><path fill="#dd2e44" d="M0 0h-30v8a2 2 0 0 0 2 2h26a2 2 0 0 0 2-2V0Z" transform="translate(34 21)"/><path fill="#66757f" d="M0 0h-.695c-1.086 0-1.537.731-1.537 1.5 0 .792.564 1.5 1.537 1.5h2.211c.97 0 1.513-.701 1.513-1.605V-9.47c0-1.13-.556-1.762-1.529-1.762-.973 0-1.5.632-1.5 1.762V0Z" transform="translate(12.61 16)"/><path fill="#f5f8fa" d="M0 0c0-1.679-1-2.119-1.851-2.119-.645 0-1.721.27-1.721 1.14 0 .269.216.609.524.609.374 0 .702-.37 1.122-.37.524 0 .524.52.524.84v3.297c0 .5.298.78.7.78.403 0 .702-.28.702-.78V0Z" transform="translate(9.065 23.999)"/><path fill="#f5f8fa" d="M0 0c0 .5.299.78.702.78.402 0 .701-.28.701-.78v-2.488c0-.92.552-1.649 1.44-1.649.85 0 1.43.769 1.43 1.649V0c0 .5.299.78.702.78.402 0 .701-.28.701-.78v-2.568c0-1.679-1.291-2.949-2.833-2.949C1.282-5.517 0-4.267 0-2.568V0Z" transform="translate(9.795 27.396)"/><path fill="#f5f8fa" d="M0 0c0 .5.3.78.702.78.402 0 .701-.28.701-.78v-4.017h1.665c.477 0 .682-.38.672-.72-.018-.33-.261-.659-.672-.659H.73c-.458 0-.73.319-.73.819V0Z" transform="translate(16.26 27.396)"/><path fill="#f4abba" d="M0 0a1 1 0 1 1 2 0 1 1 0 0 1-2 0" transform="translate(31 23)"/><path fill="#f4abba" d="M0 0a1 1 0 1 1 2 0 1 1 0 0 1-2 0" transform="translate(28 23)"/><path fill="#f4abba" d="M0 0a1 1 0 1 1 2 0 1 1 0 0 1-2 0" transform="translate(25 23)"/><path fill="#f4abba" d="M0 0a1 1 0 1 1 2 0 1 1 0 0 1-2 0" transform="translate(25 26)"/><path fill="#f4abba" d="M0 0a1 1 0 1 1 2 0 1 1 0 0 1-2 0" transform="translate(28 26)"/><path fill="#f4abba" d="M0 0a1 1 0 1 1 2 0 1 1 0 0 1-2 0" transform="translate(31 26)"/><path fill="#99aab5" d="M0 0a1 1 0 0 0-2 0v6a1 1 0 0 0 2 0V0Z" transform="translate(12 30)"/><path fill="#99aab5" d="M0 0a1 1 0 1 0-2 0v6a1 1 0 1 0 2 0V0Z" transform="translate(28 30)"/><path fill="#66757f" d="M0 0c.541.112.924.126 1.443.126 2.515 0 4.302-1.995 4.302-4.427 0-3.471-1.912-5.757-5.507-5.757-1.475 0-4.572.955-4.572 2.785 0 .769.644 1.414 1.412 1.414.831 0 1.83-1.33 3.222-1.33 1.455 0 2.203 1.413 2.203 2.721 0 1.248-.706 2.1-1.994 2.1-1.207 0-1.393-.686-2.453-.686-.811 0-1.364.536-1.303 1.656l.563 3.758c.248 1.759.677 2.143 1.759 2.143h5.436c1.037 0 1.646-.609 1.646-1.421 0-1.557-1.173-1.579-1.579-1.579H.338L0 0Z" transform="translate(21.308 14.497)"/></g></svg>