<svg id="SvgjsSvg1012" width="288" height="288" xmlns="http://www.w3.org/2000/svg" version="1.1" xmlns:xlink="http://www.w3.org/1999/xlink" xmlns:svgjs="http://svgjs.com/svgjs"><defs id="SvgjsDefs1013"></defs><g id="SvgjsG1014"><svg xmlns="http://www.w3.org/2000/svg" viewBox="0 0 24 24" width="288" height="288"><g data-name="Layer 2" fill="#cdcdce" class="color000 svgShape"><path d="M5 13h11.86l-3.63 4.36a1 1 0 0 0 1.54 1.28l5-6a1.19 1.19 0 0 0 .09-.15c0-.05.05-.08.07-.13A1 1 0 0 0 20 12a1 1 0 0 0-.07-.36c0-.05-.05-.08-.07-.13a1.19 1.19 0 0 0-.09-.15l-5-6A1 1 0 0 0 14 5a1 1 0 0 0-.64.23 1 1 0 0 0-.13 1.41L16.86 11H5a1 1 0 0 0 0 2z" data-name="arrow-forward" fill="#cdcdce" class="color000 svgShape"></path></g></svg></g></svg>