<?xml version="1.0" encoding="UTF-8"?>
<svg width="700pt" height="700pt" version="1.1" viewBox="0 0 700 700" xmlns="http://www.w3.org/2000/svg" xmlns:xlink="http://www.w3.org/1999/xlink">
 <defs>
  <symbol id="v" overflow="visible">
   <path d="m1.8281-0.10938c-0.09375 0.054688-0.19531 0.089844-0.29688 0.10938-0.09375 0.019531-0.19922 0.03125-0.3125 0.03125-0.33594 0-0.60156-0.085938-0.79688-0.26562-0.1875-0.1875-0.28125-0.44141-0.28125-0.76562 0-0.3125 0.09375-0.5625 0.28125-0.75 0.19531-0.1875 0.46094-0.28125 0.79688-0.28125 0.11328 0 0.21875 0.015625 0.3125 0.046875 0.10156 0.023437 0.20312 0.058594 0.29688 0.10938v0.40625c-0.09375-0.0625-0.1875-0.10938-0.28125-0.14062s-0.19531-0.046875-0.29688-0.046875c-0.17969 0-0.32031 0.0625-0.42188 0.1875-0.10547 0.11719-0.15625 0.27344-0.15625 0.46875 0 0.21094 0.050781 0.375 0.15625 0.5 0.10156 0.11719 0.24219 0.17188 0.42188 0.17188 0.10156 0 0.20312-0.015625 0.29688-0.046875s0.1875-0.078125 0.28125-0.14062z"/>
  </symbol>
  <symbol id="f" overflow="visible">
   <path d="m1.3438-1.0938c-0.042969-0.019531-0.085938-0.03125-0.125-0.03125-0.042969-0.007812-0.085938-0.015625-0.125-0.015625-0.125 0-0.22656 0.042969-0.29688 0.125-0.0625 0.074219-0.09375 0.18359-0.09375 0.32812v0.6875h-0.46875v-1.5h0.46875v0.25c0.0625-0.09375 0.12891-0.16016 0.20312-0.20312 0.082031-0.050781 0.17969-0.078125 0.29688-0.078125h0.046875c0.019531 0 0.050781 0.007812 0.09375 0.015625z"/>
  </symbol>
  <symbol id="a" overflow="visible">
   <path d="m1.7188-0.75v0.14062h-1.1094c0.007813 0.10547 0.046875 0.1875 0.10938 0.25 0.070312 0.054687 0.17188 0.078125 0.29688 0.078125 0.10156 0 0.20703-0.015625 0.3125-0.046875 0.10156-0.03125 0.21094-0.070313 0.32812-0.125v0.35938c-0.11719 0.042969-0.23047 0.074219-0.34375 0.09375-0.11719 0.019531-0.23047 0.03125-0.34375 0.03125-0.27344 0-0.48047-0.066406-0.625-0.20312-0.14844-0.13281-0.21875-0.32812-0.21875-0.57812 0-0.23828 0.070312-0.42578 0.21875-0.5625 0.14453-0.14453 0.34766-0.21875 0.60938-0.21875 0.22656 0 0.41016 0.074219 0.54688 0.21875 0.14453 0.13672 0.21875 0.32422 0.21875 0.5625zm-0.48438-0.15625c0-0.09375-0.027344-0.16406-0.078125-0.21875-0.054688-0.0625-0.125-0.09375-0.21875-0.09375-0.085938 0-0.15625 0.027344-0.21875 0.078125-0.0625 0.054687-0.10156 0.13281-0.10938 0.23438z"/>
  </symbol>
  <symbol id="e" overflow="visible">
   <path d="m0.90625-0.67188c-0.10547 0-0.18359 0.015625-0.23438 0.046875-0.054687 0.03125-0.078125 0.085938-0.078125 0.15625 0 0.0625 0.019531 0.10938 0.0625 0.14062 0.039062 0.03125 0.097656 0.046875 0.17188 0.046875 0.09375 0 0.16406-0.03125 0.21875-0.09375 0.0625-0.0625 0.09375-0.14453 0.09375-0.25v-0.046875zm0.71875-0.1875v0.85938h-0.48438v-0.21875c-0.0625 0.09375-0.13672 0.16406-0.21875 0.20312-0.074219 0.03125-0.16797 0.046875-0.28125 0.046875-0.15625 0-0.28125-0.039062-0.375-0.125-0.09375-0.09375-0.14062-0.21094-0.14062-0.35938 0-0.17578 0.054688-0.30078 0.17188-0.375 0.125-0.082031 0.3125-0.125 0.5625-0.125h0.28125v-0.046875c0-0.070312-0.03125-0.125-0.09375-0.15625-0.054687-0.039062-0.14062-0.0625-0.26562-0.0625-0.10547 0-0.20312 0.011719-0.29688 0.03125-0.085937 0.023438-0.16406 0.054688-0.23438 0.09375v-0.35938c0.10156-0.03125 0.20703-0.050781 0.3125-0.0625 0.10156-0.007813 0.20312-0.015625 0.29688-0.015625 0.26953 0 0.46094 0.054688 0.57812 0.15625 0.125 0.10547 0.1875 0.27734 0.1875 0.51562z"/>
  </symbol>
  <symbol id="d" overflow="visible">
   <path d="m0.75-1.9219v0.42188h0.5v0.34375h-0.5v0.64062c0 0.0625 0.007812 0.10938 0.03125 0.14062 0.03125 0.023438 0.085938 0.03125 0.17188 0.03125h0.25v0.34375h-0.40625c-0.1875 0-0.32422-0.035156-0.40625-0.10938-0.074219-0.082031-0.10938-0.21875-0.10938-0.40625v-0.64062h-0.25v-0.34375h0.25v-0.42188z"/>
  </symbol>
  <symbol id="k" overflow="visible">
   <path d="m1.25-1.2812v-0.79688h0.48438v2.0781h-0.48438v-0.21875c-0.074219 0.09375-0.15234 0.16406-0.23438 0.20312-0.074219 0.03125-0.16406 0.046875-0.26562 0.046875-0.17969 0-0.32812-0.070312-0.45312-0.21875-0.11719-0.14453-0.17188-0.33203-0.17188-0.5625 0-0.22656 0.054688-0.41406 0.17188-0.5625 0.125-0.14453 0.27344-0.21875 0.45312-0.21875 0.10156 0 0.19141 0.023438 0.26562 0.0625 0.082031 0.042969 0.16016 0.10547 0.23438 0.1875zm-0.3125 0.96875c0.09375 0 0.16406-0.035156 0.21875-0.10938 0.0625-0.070313 0.09375-0.17969 0.09375-0.32812 0-0.13281-0.03125-0.23828-0.09375-0.3125-0.054688-0.082031-0.125-0.125-0.21875-0.125-0.10547 0-0.18359 0.042969-0.23438 0.125-0.054687 0.074219-0.078125 0.17969-0.078125 0.3125 0 0.14844 0.023438 0.25781 0.078125 0.32812 0.050781 0.074219 0.12891 0.10938 0.23438 0.10938z"/>
  </symbol>
  <symbol id="j" overflow="visible">
   <path d="m1.0312-0.3125c0.09375 0 0.16406-0.035156 0.21875-0.10938 0.0625-0.070313 0.09375-0.17969 0.09375-0.32812 0-0.13281-0.03125-0.23828-0.09375-0.3125-0.054688-0.082031-0.125-0.125-0.21875-0.125-0.10547 0-0.1875 0.042969-0.25 0.125-0.054688 0.074219-0.078125 0.17969-0.078125 0.3125 0 0.14844 0.023437 0.25781 0.078125 0.32812 0.0625 0.074219 0.14453 0.10938 0.25 0.10938zm-0.32812-0.96875c0.070313-0.082031 0.14453-0.14453 0.21875-0.1875 0.082031-0.039062 0.17578-0.0625 0.28125-0.0625 0.1875 0 0.33594 0.074219 0.45312 0.21875 0.11328 0.14844 0.17188 0.33594 0.17188 0.5625 0 0.23047-0.058594 0.41797-0.17188 0.5625-0.11719 0.14844-0.26562 0.21875-0.45312 0.21875-0.10547 0-0.19922-0.015625-0.28125-0.046875-0.074219-0.039062-0.14844-0.10938-0.21875-0.20312v0.21875h-0.46875v-2.0781h0.46875z"/>
  </symbol>
  <symbol id="i" overflow="visible">
   <path d="m0.03125-1.5h0.48438l0.39062 1.0156 0.34375-1.0156h0.48438l-0.625 1.6406c-0.0625 0.16406-0.14062 0.28125-0.23438 0.34375-0.085938 0.070313-0.19531 0.10938-0.32812 0.10938h-0.26562v-0.3125h0.14062c0.082031 0 0.14062-0.015625 0.17188-0.046875 0.039062-0.023437 0.070312-0.070313 0.09375-0.14062l0.015625-0.03125z"/>
  </symbol>
  <symbol id="c" overflow="visible">
   <path d="m1.3906-1.4531v0.375c-0.09375-0.050781-0.19531-0.085937-0.29688-0.10938-0.09375-0.019531-0.18359-0.03125-0.26562-0.03125-0.085937 0-0.15234 0.015625-0.20312 0.046875-0.042969 0.023437-0.0625 0.054687-0.0625 0.09375 0 0.042969 0.015625 0.074219 0.046875 0.09375 0.03125 0.023437 0.09375 0.039063 0.1875 0.046875l0.078125 0.015625c0.25 0.03125 0.41406 0.085937 0.5 0.15625 0.082031 0.0625 0.125 0.17188 0.125 0.32812s-0.0625 0.27734-0.1875 0.35938c-0.11719 0.074219-0.28906 0.10938-0.51562 0.10938-0.10547 0-0.21094-0.011719-0.3125-0.03125-0.10547-0.0078125-0.21094-0.03125-0.3125-0.0625v-0.35938c0.09375 0.054687 0.1875 0.089844 0.28125 0.10938 0.10156 0.023438 0.20703 0.03125 0.3125 0.03125 0.09375 0 0.16016-0.007812 0.20312-0.03125 0.050781-0.03125 0.078125-0.070312 0.078125-0.125 0-0.039062-0.015625-0.070312-0.046875-0.09375-0.03125-0.019531-0.10156-0.035156-0.20312-0.046875l-0.078125-0.015625c-0.21875-0.019531-0.37109-0.066406-0.45312-0.14062-0.085937-0.070313-0.125-0.17969-0.125-0.32812 0-0.15625 0.050781-0.26953 0.15625-0.34375 0.11328-0.082031 0.28125-0.125 0.5-0.125 0.09375 0 0.1875 0.011719 0.28125 0.03125 0.10156 0.011719 0.20703 0.027344 0.3125 0.046875z"/>
  </symbol>
  <symbol id="b" overflow="visible">
   <path d="m1.7344-0.90625v0.90625h-0.48438v-0.6875c0-0.13281-0.007812-0.22266-0.015625-0.26562 0-0.050781-0.007813-0.09375-0.015625-0.125-0.023438-0.03125-0.046875-0.050781-0.078125-0.0625-0.03125-0.019531-0.070313-0.03125-0.10938-0.03125-0.10547 0-0.1875 0.042969-0.25 0.125-0.054688 0.074219-0.078125 0.17969-0.078125 0.3125v0.73438h-0.46875v-2.0781h0.46875v0.79688c0.070313-0.082031 0.14844-0.14453 0.23438-0.1875 0.082031-0.039062 0.17188-0.0625 0.26562-0.0625 0.17578 0 0.30469 0.054688 0.39062 0.15625 0.09375 0.10547 0.14062 0.26172 0.14062 0.46875z"/>
  </symbol>
  <symbol id="h" overflow="visible">
   <path d="m1.7344-0.90625v0.90625h-0.48438v-0.70312c0-0.125-0.007812-0.20703-0.015625-0.25 0-0.050781-0.007813-0.09375-0.015625-0.125-0.023438-0.03125-0.046875-0.050781-0.078125-0.0625-0.03125-0.019531-0.070313-0.03125-0.10938-0.03125-0.10547 0-0.1875 0.042969-0.25 0.125-0.054688 0.074219-0.078125 0.17969-0.078125 0.3125v0.73438h-0.46875v-1.5h0.46875v0.21875c0.070313-0.082031 0.14844-0.14453 0.23438-0.1875 0.082031-0.039062 0.17188-0.0625 0.26562-0.0625 0.17578 0 0.30469 0.054688 0.39062 0.15625 0.09375 0.10547 0.14062 0.26172 0.14062 0.46875z"/>
  </symbol>
  <symbol id="u" overflow="visible">
   <path d="m0.23438-2.0781h0.46875v1.125l0.54688-0.54688h0.5625l-0.73438 0.6875 0.79688 0.8125h-0.57812l-0.59375-0.625v0.625h-0.46875z"/>
  </symbol>
  <symbol id="t" overflow="visible">
   <path d="m0.23438-1.5h0.46875v1.5h-0.46875zm0-0.57812h0.46875v0.39062h-0.46875z"/>
  </symbol>
  <symbol id="s" overflow="visible">
   <path d="m1.25-0.25c-0.074219 0.085938-0.15234 0.14844-0.23438 0.1875-0.074219 0.042969-0.16406 0.0625-0.26562 0.0625-0.17969 0-0.32812-0.070312-0.45312-0.21875-0.11719-0.14453-0.17188-0.32812-0.17188-0.54688s0.054688-0.39844 0.17188-0.54688c0.125-0.14453 0.27344-0.21875 0.45312-0.21875 0.10156 0 0.19141 0.023438 0.26562 0.0625 0.082031 0.042969 0.16016 0.10547 0.23438 0.1875v-0.21875h0.48438v1.3438c0 0.23828-0.078125 0.42188-0.23438 0.54688-0.15625 0.13281-0.375 0.20312-0.65625 0.20312-0.09375 0-0.1875-0.011719-0.28125-0.03125-0.085938-0.011719-0.16797-0.03125-0.25-0.0625v-0.375c0.082031 0.050781 0.16016 0.085938 0.23438 0.10938 0.082031 0.03125 0.16406 0.046875 0.25 0.046875 0.15625 0 0.26953-0.039062 0.34375-0.10938 0.070313-0.074219 0.10938-0.17969 0.10938-0.32812zm-0.3125-0.9375c-0.10547 0-0.18359 0.039062-0.23438 0.10938-0.054687 0.074219-0.078125 0.17969-0.078125 0.3125 0 0.13672 0.023438 0.24219 0.078125 0.3125 0.050781 0.074219 0.12891 0.10938 0.23438 0.10938 0.09375 0 0.16406-0.035156 0.21875-0.10938 0.0625-0.070313 0.09375-0.17578 0.09375-0.3125 0-0.13281-0.03125-0.23828-0.09375-0.3125-0.054688-0.070313-0.125-0.10938-0.21875-0.10938z"/>
  </symbol>
  <symbol id="r" overflow="visible">
   <path d="m1.2188-2.0781v0.3125h-0.26562c-0.074219 0-0.125 0.015625-0.15625 0.046875-0.023437 0.023438-0.03125 0.0625-0.03125 0.125v0.09375h0.40625v0.34375h-0.40625v1.1562h-0.46875v-1.1562h-0.25v-0.34375h0.25v-0.09375c0-0.16406 0.039063-0.28516 0.125-0.35938 0.09375-0.082031 0.23438-0.125 0.42188-0.125z"/>
  </symbol>
  <symbol id="g" overflow="visible">
   <path d="m0.9375-1.1875c-0.10547 0-0.1875 0.039062-0.25 0.10938-0.054688 0.074219-0.078125 0.18359-0.078125 0.32812 0 0.14844 0.023437 0.26172 0.078125 0.34375 0.0625 0.074219 0.14453 0.10938 0.25 0.10938 0.10156 0 0.17969-0.035156 0.23438-0.10938 0.0625-0.082031 0.09375-0.19531 0.09375-0.34375 0-0.14453-0.03125-0.25391-0.09375-0.32812-0.054687-0.070313-0.13281-0.10938-0.23438-0.10938zm0-0.34375c0.25781 0 0.46094 0.074219 0.60938 0.21875 0.14453 0.13672 0.21875 0.32422 0.21875 0.5625 0 0.25-0.074219 0.44531-0.21875 0.57812-0.14844 0.13672-0.35156 0.20312-0.60938 0.20312-0.26172 0-0.46484-0.066406-0.60938-0.20312-0.13672-0.13281-0.20312-0.32812-0.20312-0.57812 0-0.23828 0.066406-0.42578 0.20312-0.5625 0.14453-0.14453 0.34766-0.21875 0.60938-0.21875z"/>
  </symbol>
  <symbol id="q" overflow="visible">
   <path d="m1.6094-1.25c0.0625-0.09375 0.13281-0.16016 0.21875-0.20312 0.082031-0.050781 0.17578-0.078125 0.28125-0.078125 0.16406 0 0.29688 0.054688 0.39062 0.15625 0.09375 0.10547 0.14062 0.26172 0.14062 0.46875v0.90625h-0.48438v-0.78125-0.03125-0.0625c0-0.10156-0.015625-0.17578-0.046875-0.21875-0.03125-0.050781-0.085937-0.078125-0.15625-0.078125-0.085937 0-0.15234 0.039063-0.20312 0.10938-0.054688 0.074219-0.078125 0.18359-0.078125 0.32812v0.73438h-0.48438v-0.78125c0-0.16406-0.015625-0.26953-0.046875-0.3125-0.023437-0.050781-0.070313-0.078125-0.14062-0.078125-0.09375 0-0.16797 0.042969-0.21875 0.125-0.054688 0.074219-0.078125 0.17969-0.078125 0.3125v0.73438h-0.46875v-1.5h0.46875v0.21875c0.0625-0.082031 0.12891-0.14453 0.20312-0.1875 0.082031-0.039062 0.16406-0.0625 0.25-0.0625 0.10156 0 0.19141 0.027344 0.26562 0.078125 0.082031 0.054687 0.14453 0.12109 0.1875 0.20312z"/>
  </symbol>
  <symbol id="p" overflow="visible">
   <path d="m0.25-2h0.57812l0.71875 1.375v-1.375h0.48438v2h-0.5625l-0.73438-1.375v1.375h-0.48438z"/>
  </symbol>
  <symbol id="o" overflow="visible">
   <path d="m0.21875-0.57812v-0.92188h0.46875v0.15625 0.3125 0.23438 0.26562c0.007812 0.054688 0.023438 0.089844 0.046875 0.10938 0.019531 0.03125 0.046875 0.058594 0.078125 0.078125 0.03125 0.011719 0.066406 0.015625 0.10938 0.015625 0.09375 0 0.16406-0.035156 0.21875-0.10938 0.0625-0.070312 0.09375-0.17578 0.09375-0.3125v-0.75h0.48438v1.5h-0.48438v-0.21875c-0.074219 0.09375-0.15234 0.16406-0.23438 0.20312-0.074219 0.03125-0.15625 0.046875-0.25 0.046875-0.17969 0-0.3125-0.050781-0.40625-0.15625-0.085938-0.10156-0.125-0.25391-0.125-0.45312z"/>
  </symbol>
  <symbol id="n" overflow="visible">
   <path d="m0.25-2h0.85938c0.25 0 0.44141 0.058594 0.57812 0.17188 0.13281 0.11719 0.20312 0.27734 0.20312 0.48438 0 0.21094-0.070313 0.37109-0.20312 0.48438-0.13672 0.11719-0.32812 0.17188-0.57812 0.17188h-0.34375v0.6875h-0.51562zm0.51562 0.375v0.5625h0.28125c0.10156 0 0.17969-0.019531 0.23438-0.0625 0.050781-0.050781 0.078125-0.125 0.078125-0.21875s-0.027344-0.16016-0.078125-0.20312c-0.054688-0.050781-0.13281-0.078125-0.23438-0.078125z"/>
  </symbol>
  <symbol id="m" overflow="visible">
   <path d="m0.23438-1.5h0.46875v1.4688c0 0.20703-0.046875 0.36328-0.14062 0.46875-0.09375 0.10156-0.23438 0.15625-0.42188 0.15625h-0.23438v-0.3125h0.078125c0.09375 0 0.15625-0.023438 0.1875-0.0625 0.039063-0.042969 0.0625-0.125 0.0625-0.25zm0-0.57812h0.46875v0.39062h-0.46875z"/>
  </symbol>
  <symbol id="l" overflow="visible">
   <path d="m1.4375-1.4531v0.39062c-0.0625-0.039062-0.13281-0.070312-0.20312-0.09375-0.0625-0.019531-0.13281-0.03125-0.20312-0.03125-0.125 0-0.23047 0.042969-0.3125 0.125-0.074219 0.074219-0.10938 0.17969-0.10938 0.3125 0 0.14844 0.035156 0.26172 0.10938 0.34375 0.082031 0.074219 0.1875 0.10938 0.3125 0.10938 0.082031 0 0.15625-0.007813 0.21875-0.03125 0.070312-0.03125 0.13281-0.066406 0.1875-0.10938v0.39062c-0.074219 0.03125-0.15234 0.050781-0.23438 0.0625-0.074219 0.0078125-0.14844 0.015625-0.21875 0.015625-0.27344 0-0.48438-0.066406-0.64062-0.20312-0.14844-0.13281-0.21875-0.32812-0.21875-0.57812 0-0.23828 0.070312-0.42578 0.21875-0.5625 0.15625-0.14453 0.36719-0.21875 0.64062-0.21875 0.070313 0 0.14453 0.011719 0.21875 0.03125 0.082031 0.011719 0.16016 0.027344 0.23438 0.046875z"/>
  </symbol>
 </defs>
 <g>
  <path d="m463.59 194.96c0.21875 3.9922-0.10938 8.0938-0.49219 12.086-0.10938 0.92969-0.21875 1.8594-0.32812 2.7891-0.16406 1.6406 0.49219-3.2266 0.10938-0.98438-0.10938 0.60156-0.16406 1.2031-0.27344 1.8047-0.38281 2.3516-0.82031 4.7031-1.3125 7.0547-1.2031 5.6328-2.7891 11.156-4.7031 16.57-0.49219 1.4219-1.0391 2.8438-1.5859 4.2656-0.27344 0.71094-0.71094 1.4219-0.875 2.1875 0.82031-2.9531 0.10938-0.32812-0.27344 0.54688-1.4766 3.2812-3.0625 6.5078-4.8125 9.625-1.8047 3.2266-3.7188 6.3984-5.7422 9.5156-1.0391 1.5859-2.1328 3.1172-3.2266 4.5938-0.49219 0.71094-1.0391 1.6953-1.6953 2.2969 1.5312-1.3672 0.60156-0.76562 0.16406-0.21875-0.32812 0.4375-0.71094 0.875-1.0391 1.3125-5.5781 6.8359-11.812 13.125-18.594 18.812-1.5312 1.3125-3.1172 2.5703-4.7031 3.8281-1.2578 0.98438 1.4219-1.0938 0.16406-0.10938-0.32813 0.27344-0.71094 0.49219-1.0391 0.76562-1.0391 0.76562-2.0781 1.5312-3.1172 2.2969-3.3359 2.4062-6.7812 4.7031-10.281 6.8359-7 4.375-14.273 8.3125-21.711 11.867-3.6094 1.75-7.2188 3.3359-10.883 4.9219-1.2578 0.54688-0.21875 0.60156 0.38281-0.16406-0.16406 0.21875-0.875 0.38281-1.1484 0.49219-0.875 0.38281-1.75 0.71094-2.625 1.0938-1.9688 0.82031-3.9922 1.5859-6.0156 2.3516-13.727 5.25-27.781 9.5156-41.945 13.508-11.43 3.1719-22.914 6.0703-34.234 9.625-13.453 4.2109-25.812 10.336-36.586 19.469-9.4062 7.9844-17.172 18.32-22.477 29.422-3.1719 6.5625-5.9609 13.508-7.3828 20.672-0.054688 0.32812-0.10938 0.65625-0.16406 0.92969-0.875 5.6328 1.4219 12.031 7.6562 13.453 5.25 1.2031 12.469-1.5859 13.453-7.6562 0.71094-4.5391 2.2969-9.0781 3.9922-13.344 0.21875-0.49219 0.92969-2.2422 0.10937-0.32812-0.875 2.0234-0.054687 0.10937 0.16406-0.38281 0.54688-1.2031 1.0938-2.3516 1.6406-3.5 1.1484-2.2969 2.4062-4.5391 3.7188-6.7812 1.4766-2.4062 3.2266-4.6484 4.8125-7-1.8594 2.7891-0.32812 0.4375 0.21875-0.21875 0.38281-0.49219 0.82031-0.98438 1.2031-1.4766 1.1484-1.3125 2.2969-2.5703 3.5547-3.8281 1.0938-1.1484 2.2422-2.1875 3.4453-3.2812 0.60156-0.54688 1.2031-1.0938 1.8047-1.5859 0.32813-0.27344 2.5703-2.2969 1.3672-1.1484-1.2578 1.1484 0.82031-0.60156 1.2031-0.875 0.82031-0.54687 1.5859-1.1484 2.4062-1.6953 1.5859-1.0391 3.2266-2.0234 4.8672-2.9531 1.5859-0.92969 3.2266-1.75 4.9219-2.5703 0.82031-0.38281 1.6953-0.92969 2.625-1.2031-1.4219 0.4375-0.92969 0.38281 0.054687 0 2.0781-0.82031 4.2109-1.5859 6.3984-2.2969 10.992-3.6641 22.258-6.4531 33.414-9.5156 30.133-8.3672 60.211-18.211 87.391-34.016 29.312-17.062 54.633-41.289 68.141-72.789 4.7578-11.102 8.3672-22.531 10.172-34.508 0.98438-6.5078 1.8594-13.18 1.6406-19.797 0-0.27344 0-0.54687-0.054687-0.82031-0.32813-5.6875-4.8125-11.211-10.938-10.938-5.6875 0.32812-11.32 4.8672-10.938 10.992z"/>
  <path d="m236.47 460.2v-35.82-86.023-104.07-90.016c0-14.602 0.27344-29.203 0-43.805v-0.60156c0-5.7422-5.0312-11.211-10.938-10.938s-10.938 4.8125-10.938 10.938v35.82 86.023 104.07 90.016c0 14.602-0.27344 29.203 0 43.805v0.60156c0 5.7422 5.0312 11.211 10.938 10.938 5.9609-0.27344 10.938-4.8125 10.938-10.938z"/>
  <path d="m504.6 153.95c0 1.0391-0.054687 2.0234-0.10937 3.0625-0.054688 0.4375-0.21875 1.1484-0.16406 1.5312-0.054687-0.27344 0.4375-2.625 0.054687-0.65625-0.38281 1.9688-0.76562 3.8828-1.3672 5.7422-0.16406 0.4375-0.60156 2.5703-0.98438 2.7344 0 0 1.2031-2.5156 0.21875-0.60156l-0.65625 1.3125c-0.875 1.6953-1.8594 3.3359-2.9531 4.9219-0.054687 0.054687-0.65625 1.0938-0.82031 1.1484 0.054688 0 1.75-2.0781 0.38281-0.54688-0.65625 0.71094-1.2578 1.4219-1.9141 2.1328-0.60156 0.60156-1.2031 1.2031-1.8047 1.75-0.32812 0.32813-0.71094 0.65625-1.0938 0.92969-1.4766 1.3125 0.10938 0.4375 0.27344-0.16406-0.32812 1.0938-3.8828 2.625-4.8125 3.1172-0.71094 0.38281-1.4766 0.76562-2.2422 1.1484-0.38281 0.16406-1.8594 0.875-0.32812 0.16406 1.5859-0.71094-0.38281 0.10938-0.71094 0.27344-1.8594 0.65625-3.7188 1.2031-5.6875 1.5859-0.54687 0.10938-3.1172 0.16406-1.4766 0.27344 1.5859 0.10937 0.054688-0.054688-0.4375 0-0.65625 0.054687-1.2578 0.10937-1.9141 0.10937-1.9141 0.054688-4.2656-0.54687-6.125-0.21875 0 0 2.2422 0.38281 1.0391 0.16406-0.49219-0.10938-0.98438-0.16406-1.4766-0.27344-1.0938-0.21875-2.1875-0.49219-3.2266-0.76563-0.92969-0.27344-1.8594-0.54687-2.7891-0.875-0.21875-0.054687-1.3125-0.38281-1.3672-0.49219 0 0 2.5156 1.2031 0.60156 0.21875-1.75-0.875-3.4453-1.75-5.0312-2.7891-0.4375-0.27344-2.1875-1.1484-2.3516-1.6406 0 0.054687 2.0781 1.75 0.54688 0.38281-0.32812-0.32812-0.71094-0.60156-1.0938-0.92969-1.4219-1.3125-2.6797-2.6797-3.9922-4.1016-0.98437-1.0938-0.21875 0.32812 0.38281 0.54688-0.16406-0.054687-0.76562-1.0938-0.82031-1.1484-0.54687-0.76563-1.0938-1.5859-1.5859-2.4062-0.4375-0.71094-0.82031-1.4766-1.2578-2.1875l-0.65625-1.3125c-0.98437-1.9141-0.32812 0.10937 0.054688 0.27344-0.76562-0.32812-1.4766-4.375-1.6953-5.1953-0.21875-0.98437-0.4375-1.9141-0.60156-2.8984-0.10938-0.54688 0-1.9688-0.10938-0.38281-0.10938 1.75 0-0.38281-0.054688-0.82031-0.16406-1.9141-0.16406-3.8281 0-5.7422 0.054688-0.49219 0.10938-0.98437 0.10938-1.5312 0.10937-1.5312-0.38281 2.1875-0.10938 0.65625 0.21875-1.0938 0.38281-2.1875 0.65625-3.2812 0.4375-1.8047 1.1484-3.5 1.6406-5.25 0.38281-1.4219-0.92969 1.8594-0.27344 0.60156 0.21875-0.4375 0.38281-0.875 0.60156-1.3125 0.49219-0.98438 0.98438-1.9141 1.5859-2.8438 0.49219-0.82031 1.0391-1.6406 1.5859-2.4062 0.16406-0.21875 0.65625-1.0938 0.82031-1.1484 0.10938-0.054688-1.4766 1.6953-0.60156 0.82031 1.4219-1.4766 2.6797-3.0078 4.2109-4.375 0.32812-0.32812 0.71094-0.60156 1.0938-0.92969 1.0938-0.98437-0.32812-0.21875-0.54688 0.38281 0.21875-0.54688 1.5312-1.1484 2.0781-1.4766 1.6953-1.1484 3.5-2.0781 5.3594-3.0078 1.4219-0.71094-0.49219-0.054688-0.60156 0.21875 0.054687-0.10938 1.3672-0.49219 1.3672-0.49219 0.82031-0.27344 1.6406-0.54687 2.4609-0.76562 0.92969-0.27344 1.9141-0.49219 2.8438-0.71094 0.49219-0.10938 0.98438-0.21875 1.4766-0.27344 0.21875-0.054687 0.49219-0.10937 0.71094-0.10937 0.82031-0.10938 0.49219-0.10938-1.0391 0.16406 0.4375-0.65625 4.8672-0.27344 5.7422-0.21875 1.0391 0.054688 2.0234 0.16406 3.0625 0.21875 1.5312 0.10938-2.1875-0.38281-0.65625-0.10938 0.60156 0.10938 1.2031 0.21875 1.8594 0.32812 2.1875 0.4375 4.2656 1.0938 6.3438 1.8594 1.5312 0.54688-0.38281-0.38281-0.60156-0.27344 0.16406-0.054688 1.1484 0.54687 1.3125 0.60156 1.0938 0.54688 2.1328 1.0938 3.1719 1.6953 0.82031 0.49219 1.6406 1.0391 2.4062 1.5859 0.054687 0.054688 1.0938 0.65625 1.1484 0.82031-1.1484-0.92969-1.4219-1.0938-0.82031-0.60156 0.27344 0.21875 0.54688 0.4375 0.82031 0.71094 1.6406 1.4219 3.0625 3.0078 4.4844 4.5938 0.32812 0.32812 1.0391 0.82031 0.054687 0-1.2031-0.98438 0.10938 0.16406 0.4375 0.60156 0.60156 0.875 1.2031 1.8047 1.75 2.7344s1.0391 1.8594 1.5312 2.8438c0-0.054687 0.65625 1.2031 0.60156 1.3125 0.16406-0.32812-0.875-2.3516-0.16406-0.27344 0.76562 2.0781 1.3672 4.2109 1.8047 6.3984 0.10938 0.49219 0.16406 0.98438 0.27344 1.4766 0.27344 1.3672-0.16406-2.3516-0.054688-0.27344 0.10938 1.1484 0.16406 2.4062 0.21875 3.6641 0.054688 5.7422 4.9766 11.211 10.938 10.938 5.9062-0.27344 10.992-4.8125 10.938-10.938-0.21875-22.148-14.109-41.344-34.781-49-19.688-7.3281-43.531-0.71094-56.766 15.477-13.891 16.953-16.461 41.125-5.0312 60.156 11.484 19.086 33.742 28.383 55.398 24.172 23.844-4.6484 40.906-26.852 41.125-50.805 0.054687-5.7422-5.0859-11.211-10.938-10.938-5.9609 0.27344-10.828 4.8125-10.883 10.938z"/>
  <path d="m255.55 58.789c0 1.0391-0.054688 2.0234-0.10938 3.0625-0.054687 0.4375-0.21875 1.1484-0.16406 1.5312-0.054688-0.27344 0.4375-2.625 0.054688-0.65625-0.38281 1.9688-0.76563 3.8828-1.3672 5.7422-0.16406 0.4375-0.60156 2.5703-0.98438 2.7344 0 0 1.2031-2.5156 0.21875-0.60156l-0.65625 1.3125c-0.875 1.6953-1.8594 3.3359-2.9531 4.9219-0.054688 0.054687-0.65625 1.0938-0.82031 1.1484 0.054687 0 1.75-2.0781 0.38281-0.54688-0.65625 0.71094-1.2578 1.4219-1.9141 2.1328-0.60156 0.60156-1.2031 1.2031-1.8047 1.75-0.32812 0.32813-0.71094 0.65625-1.0938 0.92969-1.4766 1.3125 0.10938 0.4375 0.27344-0.16406-0.32813 1.0938-3.8828 2.625-4.8125 3.1172-0.71094 0.38281-1.4766 0.76562-2.2422 1.1484-0.38281 0.16406-1.8594 0.875-0.32812 0.16406 1.5859-0.71094-0.38281 0.10938-0.71094 0.27344-1.8594 0.65625-3.7188 1.2031-5.6875 1.5859-0.54688 0.10938-3.1172 0.16406-1.4766 0.27344 1.5859 0.10937 0.054687-0.054688-0.4375 0-0.65625 0.054687-1.2578 0.10937-1.9141 0.10937-1.9141 0.054688-4.2656-0.54687-6.125-0.21875 0 0 2.2422 0.38281 1.0391 0.16406-0.49219-0.10938-0.98438-0.16406-1.4766-0.27344-1.0938-0.21875-2.1875-0.49219-3.2266-0.76563-0.92969-0.27344-1.8594-0.54687-2.7891-0.875-0.21875-0.054687-1.3125-0.38281-1.3672-0.49219 0 0 2.5156 1.2031 0.60156 0.21875-1.75-0.875-3.4453-1.75-5.0312-2.7891-0.4375-0.27344-2.1875-1.1484-2.3516-1.6406 0 0.054687 2.0781 1.75 0.54688 0.38281-0.32812-0.32812-0.71094-0.60156-1.0938-0.92969-1.4219-1.3125-2.6797-2.6797-3.9922-4.1016-0.98438-1.0938-0.21875 0.32812 0.38281 0.54688-0.16406-0.054687-0.76562-1.0938-0.82031-1.1484-0.54688-0.76563-1.0938-1.5859-1.5859-2.4062-0.4375-0.71094-0.82031-1.4766-1.2578-2.1875l-0.65625-1.3125c-0.98438-1.9141-0.32813 0.10937 0.054687 0.27344-0.76562-0.32812-1.4766-4.375-1.6953-5.1953-0.21875-0.98437-0.4375-1.9141-0.60156-2.8984-0.10938-0.54688 0-1.9688-0.10938-0.38281-0.10938 1.75 0-0.38281-0.054687-0.82031-0.16406-1.9141-0.16406-3.8281 0-5.7422 0.054687-0.49219 0.10937-0.98437 0.10937-1.5312 0.10938-1.5312-0.38281 2.1875-0.10937 0.65625 0.21875-1.0938 0.38281-2.1875 0.65625-3.2812 0.4375-1.8047 1.1484-3.5 1.6406-5.25 0.38281-1.4219-0.92969 1.8594-0.27344 0.60156 0.21875-0.4375 0.38281-0.875 0.60156-1.3125 0.49219-0.98438 0.98437-1.9141 1.5859-2.8438 0.49219-0.82031 1.0391-1.6406 1.5859-2.4062 0.16406-0.21875 0.65625-1.0938 0.82031-1.1484 0.10938-0.054688-1.4766 1.6953-0.60156 0.82031 1.4219-1.4766 2.6797-3.0078 4.2109-4.375 0.32812-0.32812 0.71094-0.60156 1.0938-0.92969 1.0938-0.98437-0.32812-0.21875-0.54688 0.38281 0.21875-0.54688 1.5312-1.1484 2.0781-1.4766 1.6953-1.1484 3.5-2.0781 5.3594-3.0078 1.4219-0.71094-0.49219-0.054688-0.60156 0.21875 0.054688-0.10938 1.3672-0.49219 1.3672-0.49219 0.82031-0.27344 1.6406-0.54687 2.4609-0.76562 0.92969-0.27344 1.9141-0.49219 2.8438-0.71094 0.49219-0.10938 0.98437-0.21875 1.4766-0.27344 0.21875-0.054687 0.49219-0.10937 0.71094-0.10937 0.82031-0.10938 0.49219-0.10938-1.0391 0.16406 0.4375-0.65625 4.8672-0.27344 5.7422-0.21875 1.0391 0.054688 2.0234 0.16406 3.0625 0.21875 1.5312 0.10938-2.1875-0.38281-0.65625-0.10938 0.60156 0.10938 1.2031 0.21875 1.8594 0.32812 2.1875 0.4375 4.2656 1.0938 6.3438 1.8594 1.5312 0.54688-0.38281-0.38281-0.60156-0.27344 0.16406-0.054688 1.1484 0.54687 1.3125 0.60156 1.0938 0.54688 2.1328 1.0938 3.1719 1.6953 0.82031 0.49219 1.6406 1.0391 2.4062 1.5859 0.054688 0.054688 1.0938 0.65625 1.1484 0.82031-1.1484-0.92969-1.4219-1.0938-0.82031-0.60156 0.27344 0.21875 0.54688 0.4375 0.82031 0.71094 1.6406 1.4219 3.0625 3.0078 4.4844 4.5938 0.32813 0.32812 1.0391 0.82031 0.054688 0-1.2031-0.98438 0.10938 0.16406 0.4375 0.60156 0.60156 0.875 1.2031 1.8047 1.75 2.7344s1.0391 1.8594 1.5312 2.8438c0-0.054687 0.65625 1.2031 0.60156 1.3125 0.16406-0.32812-0.875-2.3516-0.16406-0.27344 0.76562 2.0781 1.3672 4.2109 1.8047 6.3984 0.10937 0.49219 0.16406 0.98438 0.27344 1.4766 0.27344 1.3672-0.16406-2.3516-0.054687-0.27344 0.10937 1.1484 0.21875 2.4062 0.21875 3.6641 0.054687 5.7422 4.9766 11.211 10.938 10.938 5.9062-0.27344 10.992-4.8125 10.938-10.938-0.16406-22.148-14.109-41.344-34.781-49-19.688-7.3281-43.531-0.71094-56.766 15.477-13.891 16.953-16.461 41.125-5.0312 60.156 11.484 19.086 33.742 28.383 55.398 24.172 23.844-4.6484 40.906-26.852 41.125-50.805 0.054688-5.7422-5.0859-11.211-10.938-10.938-5.9062 0.27344-10.828 4.8125-10.883 10.938z"/>
  <path d="m255.77 501.21c0 1.0391-0.054688 2.0234-0.10938 3.0625-0.054687 0.4375-0.21875 1.1484-0.16406 1.5312-0.054688-0.27344 0.4375-2.625 0.054688-0.65625-0.38281 1.9688-0.76563 3.8828-1.3672 5.7422-0.16406 0.4375-0.60156 2.5703-0.98438 2.7344 0 0 1.2031-2.5156 0.21875-0.60156l-0.65625 1.3125c-0.875 1.6953-1.8594 3.3359-2.9531 4.9219-0.054688 0.054688-0.65625 1.0938-0.82031 1.1484 0.054687 0 1.75-2.0781 0.38281-0.54688-0.65625 0.71094-1.2578 1.4219-1.9141 2.1328-0.60156 0.60156-1.2031 1.2031-1.8047 1.75-0.32812 0.32812-0.71094 0.65625-1.0938 0.92969-1.4766 1.3125 0.10938 0.4375 0.27344-0.16406-0.32813 1.0938-3.8828 2.625-4.8125 3.1172-0.71094 0.38281-1.4766 0.76562-2.2422 1.1484-0.38281 0.16406-1.8594 0.875-0.32812 0.16406 1.5859-0.71094-0.38281 0.10938-0.71094 0.27344-1.8594 0.65625-3.7188 1.2031-5.6875 1.5859-0.54688 0.10938-3.1172 0.16406-1.4766 0.27344 1.5859 0.10938 0.054687-0.054687-0.4375 0-0.65625 0.054688-1.2578 0.10938-1.9141 0.10938-1.9141 0.054687-4.2656-0.54688-6.125-0.21875 0 0 2.2422 0.38281 1.0391 0.16406-0.49219-0.10938-0.98438-0.16406-1.4766-0.27344-1.0938-0.21875-2.1875-0.49219-3.2266-0.76562-0.92969-0.27344-1.8594-0.54688-2.7891-0.875-0.21875-0.054688-1.3125-0.38281-1.3672-0.49219 0 0 2.5156 1.2031 0.60156 0.21875-1.75-0.875-3.4453-1.75-5.0312-2.7891-0.4375-0.27344-2.1875-1.1484-2.3516-1.6406 0 0.054688 2.0781 1.75 0.54688 0.38281-0.32812-0.32812-0.71094-0.60156-1.0938-0.92969-1.4219-1.3125-2.6797-2.6797-3.9922-4.1016-0.98438-1.0938-0.21875 0.32812 0.38281 0.54688-0.16406-0.054688-0.76562-1.0938-0.82031-1.1484-0.54688-0.76562-1.0938-1.5859-1.5859-2.4062-0.4375-0.71094-0.82031-1.4766-1.2578-2.1875l-0.65625-1.3125c-0.98438-1.9141-0.32813 0.10938 0.054687 0.27344-0.76562-0.32812-1.4766-4.375-1.6953-5.1953-0.21875-0.98438-0.4375-1.9141-0.60156-2.8984-0.10938-0.54688 0-1.9688-0.10938-0.38281-0.10938 1.75 0-0.38281-0.054687-0.82031-0.16406-1.9141-0.16406-3.8281 0-5.7422 0.054687-0.49219 0.10937-0.98438 0.10937-1.5312 0.10938-1.5312-0.38281 2.1875-0.10937 0.65625 0.21875-1.0938 0.38281-2.1875 0.65625-3.2812 0.4375-1.8047 1.1484-3.5 1.6406-5.25 0.38281-1.4219-0.92969 1.8594-0.27344 0.60156 0.21875-0.4375 0.38281-0.875 0.60156-1.3125 0.49219-0.98438 0.98437-1.9141 1.5859-2.8438 0.49219-0.82031 1.0391-1.6406 1.5859-2.4062 0.16406-0.21875 0.65625-1.0938 0.82031-1.1484 0.10938-0.054687-1.4766 1.6953-0.60156 0.82031 1.4219-1.4766 2.6797-3.0078 4.2109-4.375 0.32812-0.32812 0.71094-0.60156 1.0938-0.92969 1.0938-0.98438-0.32812-0.21875-0.54688 0.38281 0.21875-0.54688 1.5312-1.1484 2.0781-1.4766 1.6953-1.1484 3.5-2.0781 5.3594-3.0078 1.4219-0.71094-0.49219-0.054687-0.60156 0.21875 0.054688-0.10938 1.3672-0.49219 1.3672-0.49219 0.82031-0.27344 1.6406-0.54688 2.4609-0.76563 0.92969-0.27344 1.9141-0.49219 2.8438-0.71094 0.49219-0.10938 0.98437-0.21875 1.4766-0.27344 0.21875-0.054688 0.49219-0.10938 0.71094-0.10938 0.82031-0.10937 0.49219-0.10937-1.0391 0.16406 0.4375-0.65625 4.8672-0.27344 5.7422-0.21875 1.0391 0.054687 2.0234 0.16406 3.0625 0.21875 1.5312 0.10938-2.1875-0.38281-0.65625-0.10938 0.60156 0.10938 1.2031 0.21875 1.8594 0.32812 2.1875 0.4375 4.2656 1.0938 6.3438 1.8594 1.5312 0.54688-0.38281-0.38281-0.60156-0.27344 0.16406-0.054687 1.1484 0.54688 1.3125 0.60156 1.0938 0.54688 2.1328 1.0938 3.1719 1.6953 0.82031 0.49219 1.6406 1.0391 2.4062 1.5859 0.054688 0.054687 1.0938 0.65625 1.1484 0.82031-1.1484-0.92969-1.4219-1.0938-0.82031-0.60156 0.27344 0.21875 0.54688 0.4375 0.82031 0.71094 1.6406 1.4219 3.0625 3.0078 4.4844 4.5938 0.32813 0.32813 1.0391 0.82031 0.054688 0-1.2031-0.98437 0.10938 0.16406 0.4375 0.60156 0.60156 0.875 1.2031 1.8047 1.75 2.7344s1.0391 1.8594 1.5312 2.8438c0-0.054688 0.65625 1.2031 0.60156 1.3125 0.16406-0.32812-0.875-2.3516-0.16406-0.27344 0.76562 2.0781 1.3672 4.2109 1.8047 6.3984 0.10937 0.49219 0.16406 0.98438 0.27344 1.4766 0.27344 1.3672-0.16406-2.3516-0.054687-0.27344 0.10937 1.1484 0.16406 2.4062 0.21875 3.6641 0.054687 5.7422 4.9766 11.211 10.938 10.938 5.9062-0.27344 10.992-4.8125 10.938-10.938-0.21875-22.148-14.109-41.344-34.781-49-19.688-7.3281-43.531-0.71094-56.766 15.477-13.891 16.953-16.461 41.125-5.0312 60.156 11.484 19.086 33.742 28.383 55.398 24.172 23.844-4.6484 40.906-26.852 41.125-50.805 0.054688-5.7422-5.0859-11.211-10.938-10.938-5.9609 0.27344-10.828 4.8125-10.883 10.938z"/>
  <use x="70" y="568.203125" xlink:href="#v"/>
  <use x="72.007812" y="568.203125" xlink:href="#f"/>
  <use x="73.355469" y="568.203125" xlink:href="#a"/>
  <use x="75.210937" y="568.203125" xlink:href="#e"/>
  <use x="77.054688" y="568.203125" xlink:href="#d"/>
  <use x="78.363281" y="568.203125" xlink:href="#a"/>
  <use x="80.214844" y="568.203125" xlink:href="#k"/>
  <use x="83.125" y="568.203125" xlink:href="#j"/>
  <use x="85.082031" y="568.203125" xlink:href="#i"/>
  <use x="87.816406" y="568.203125" xlink:href="#c"/>
  <use x="89.445312" y="568.203125" xlink:href="#b"/>
  <use x="91.390625" y="568.203125" xlink:href="#e"/>
  <use x="93.238281" y="568.203125" xlink:href="#c"/>
  <use x="94.863281" y="568.203125" xlink:href="#b"/>
  <use x="96.8125" y="568.203125" xlink:href="#e"/>
  <use x="98.65625" y="568.203125" xlink:href="#h"/>
  <use x="100.601562" y="568.203125" xlink:href="#u"/>
  <use x="103.375" y="568.203125" xlink:href="#c"/>
  <use x="105" y="568.203125" xlink:href="#t"/>
  <use x="105.9375" y="568.203125" xlink:href="#h"/>
  <use x="107.882812" y="568.203125" xlink:href="#s"/>
  <use x="109.84375" y="568.203125" xlink:href="#b"/>
  <use x="70" y="570.9375" xlink:href="#r"/>
  <use x="71.191406" y="570.9375" xlink:href="#f"/>
  <use x="72.539062" y="570.9375" xlink:href="#g"/>
  <use x="74.417969" y="570.9375" xlink:href="#q"/>
  <use x="78.21875" y="570.9375" xlink:href="#d"/>
  <use x="79.523438" y="570.9375" xlink:href="#b"/>
  <use x="81.472656" y="570.9375" xlink:href="#a"/>
  <use x="84.277344" y="570.9375" xlink:href="#p"/>
  <use x="86.566406" y="570.9375" xlink:href="#g"/>
  <use x="88.445312" y="570.9375" xlink:href="#o"/>
  <use x="90.390625" y="570.9375" xlink:href="#h"/>
  <use x="93.289062" y="570.9375" xlink:href="#n"/>
  <use x="95.292969" y="570.9375" xlink:href="#f"/>
  <use x="96.644531" y="570.9375" xlink:href="#g"/>
  <use x="98.519531" y="570.9375" xlink:href="#m"/>
  <use x="99.457031" y="570.9375" xlink:href="#a"/>
  <use x="101.3125" y="570.9375" xlink:href="#l"/>
  <use x="102.933594" y="570.9375" xlink:href="#d"/>
 </g>
</svg>
